<?xml version="1.0" encoding="UTF-8" standalone="no"?>
<!DOCTYPE svg PUBLIC "-//W3C//DTD SVG 20010904//EN"
              "http://www.w3.org/TR/2001/REC-SVG-20010904/DTD/svg10.dtd">

<svg xmlns="http://www.w3.org/2000/svg"
     width="30" height="46"
     viewBox="0 0 438 512">
        <path id="pin_inner"
        fill="grey"
        d="M 196.00,3.71
           C 196.00,3.71 180.00,6.04 180.00,6.04
             180.00,6.04 157.00,11.97 157.00,11.97
             136.80,18.09 106.78,35.01 90.42,48.43
             61.88,71.87 42.88,100.93 29.60,135.00
             23.93,149.54 18.19,170.43 17.91,186.00
             17.91,186.00 17.91,197.00 17.91,197.00
             17.91,197.00 16.14,206.00 16.14,206.00
             16.09,210.27 17.98,210.86 18.00,220.00
             18.06,250.59 29.37,279.92 43.97,306.42
             43.97,306.42 53.07,321.91 53.07,321.91
             63.14,336.43 83.69,358.10 98.00,368.48
             98.00,368.48 115.75,379.56 115.75,379.56
             115.75,379.56 125.04,385.42 125.04,385.42
             131.68,388.90 141.01,393.42 148.00,395.93
             148.00,395.93 164.87,402.14 164.87,402.14
             168.77,404.80 173.34,419.96 175.17,425.00
             175.17,425.00 187.55,458.00 187.55,458.00
             187.55,458.00 198.78,485.91 198.78,485.91
             198.78,485.91 203.27,497.28 203.27,497.28
             204.32,499.91 204.51,501.84 206.03,504.38
             209.53,510.20 217.45,513.17 224.00,511.53
             235.41,508.68 239.10,493.83 242.81,484.00
             242.81,484.00 264.40,423.58 264.40,423.58
             266.31,418.76 269.13,406.92 272.53,403.58
             274.74,401.41 290.71,396.86 295.00,395.19
             305.94,390.93 323.44,381.02 333.58,374.57
             342.56,368.86 347.39,364.61 355.17,357.54
             355.17,357.54 363.82,349.87 363.82,349.87
             363.82,349.87 371.37,341.28 371.37,341.28
             371.37,341.28 377.87,334.35 377.87,334.35
             389.93,319.66 404.73,293.84 411.34,276.00
             411.34,276.00 416.18,259.09 416.18,259.09
             419.20,247.30 421.98,235.27 422.00,223.00
             422.00,223.00 422.00,215.00 422.00,215.00
             422.00,215.00 423.09,206.00 423.09,206.00
             423.09,206.00 422.00,197.00 422.00,197.00
             422.00,197.00 422.00,188.00 422.00,188.00
             421.97,170.57 414.71,142.21 407.93,126.00
             395.30,95.78 368.86,61.99 342.56,42.66
             333.73,36.17 320.81,28.32 311.00,23.52
             311.00,23.52 303.28,20.28 303.28,20.28
             303.28,20.28 294.00,15.58 294.00,15.58
             280.86,10.06 264.11,6.62 250.00,4.88
             243.77,4.11 246.65,3.02 237.00,3.00
             237.00,3.00 196.00,3.71 196.00,3.71 Z" />
  <path id="pin_outer"
        fill="black"
        d="M 196.00,3.71
           C 196.00,3.71 180.00,6.04 180.00,6.04
             180.00,6.04 157.00,11.97 157.00,11.97
             136.80,18.09 106.78,35.01 90.42,48.43
             61.88,71.87 42.88,100.93 29.60,135.00
             23.93,149.54 18.19,170.43 17.91,186.00
             17.91,186.00 17.91,197.00 17.91,197.00
             17.91,197.00 16.14,206.00 16.14,206.00
             16.09,210.27 17.98,210.86 18.00,220.00
             18.06,250.59 29.37,279.92 43.97,306.42
             43.97,306.42 53.07,321.91 53.07,321.91
             63.14,336.43 83.69,358.10 98.00,368.48
             98.00,368.48 115.75,379.56 115.75,379.56
             115.75,379.56 125.04,385.42 125.04,385.42
             131.68,388.90 141.01,393.42 148.00,395.93
             148.00,395.93 164.87,402.14 164.87,402.14
             168.77,404.80 173.34,419.96 175.17,425.00
             175.17,425.00 187.55,458.00 187.55,458.00
             187.55,458.00 198.78,485.91 198.78,485.91
             198.78,485.91 203.27,497.28 203.27,497.28
             204.32,499.91 204.51,501.84 206.03,504.38
             209.53,510.20 217.45,513.17 224.00,511.53
             235.41,508.68 239.10,493.83 242.81,484.00
             242.81,484.00 264.40,423.58 264.40,423.58
             266.31,418.76 269.13,406.92 272.53,403.58
             274.74,401.41 290.71,396.86 295.00,395.19
             305.94,390.93 323.44,381.02 333.58,374.57
             342.56,368.86 347.39,364.61 355.17,357.54
             355.17,357.54 363.82,349.87 363.82,349.87
             363.82,349.87 371.37,341.28 371.37,341.28
             371.37,341.28 377.87,334.35 377.87,334.35
             389.93,319.66 404.73,293.84 411.34,276.00
             411.34,276.00 416.18,259.09 416.18,259.09
             419.20,247.30 421.98,235.27 422.00,223.00
             422.00,223.00 422.00,215.00 422.00,215.00
             422.00,215.00 423.09,206.00 423.09,206.00
             423.09,206.00 422.00,197.00 422.00,197.00
             422.00,197.00 422.00,188.00 422.00,188.00
             421.97,170.57 414.71,142.21 407.93,126.00
             395.30,95.78 368.86,61.99 342.56,42.66
             333.73,36.17 320.81,28.32 311.00,23.52
             311.00,23.52 303.28,20.28 303.28,20.28
             303.28,20.28 294.00,15.58 294.00,15.58
             280.86,10.06 264.11,6.62 250.00,4.88
             243.77,4.11 246.65,3.02 237.00,3.00
             237.00,3.00 196.00,3.71 196.00,3.71 Z
           M 219.00,446.00
           C 219.00,446.00 201.96,400.00 201.96,400.00
             199.59,393.76 194.76,380.24 190.45,375.90
             185.00,370.42 176.12,369.82 169.00,367.62
             158.36,364.34 140.15,356.39 130.91,350.33
             93.16,325.60 65.57,289.04 55.16,245.00
             55.16,245.00 53.24,238.00 53.24,238.00
             53.24,238.00 51.87,224.00 51.87,224.00
             51.20,218.04 50.02,220.60 50.00,211.00
             50.00,211.00 50.00,198.00 50.00,198.00
             50.11,191.33 51.33,191.79 51.87,187.00
             51.87,187.00 53.24,173.00 53.24,173.00
             55.47,161.16 59.68,147.91 64.72,136.96
             79.67,104.46 103.79,77.24 134.42,58.68
             142.13,54.01 150.60,50.46 159.00,47.34
             166.18,44.68 173.70,41.88 181.17,40.20
             181.17,40.20 190.00,38.78 190.00,38.78
             190.00,38.78 196.00,37.26 196.00,37.26
             196.00,37.26 214.00,36.00 214.00,36.00
             239.38,35.71 263.18,39.17 286.72,49.15
             307.87,58.12 324.84,70.74 341.26,86.67
             356.21,101.17 367.47,118.88 375.74,137.91
             383.43,155.62 389.77,179.68 390.00,199.00
             390.10,207.71 390.12,220.58 388.74,229.00
             388.74,229.00 384.90,245.00 384.90,245.00
             374.21,288.76 348.10,325.93 309.75,350.06
             298.00,357.45 285.21,363.09 272.00,367.32
             264.47,369.72 253.81,370.56 248.19,376.19
             243.61,380.76 242.30,387.86 240.09,393.83
             240.09,393.83 226.81,428.00 226.81,428.00
             224.67,433.64 222.83,441.46 219.00,446.00 Z" />
    <path id="pin_path"
        fill="black"
        d="M 119.00,81.53
           C 105.71,85.49 95.18,96.74 95.00,111.00
             94.85,123.87 93.66,131.23 102.75,141.71
             113.48,154.10 119.78,147.48 120.00,159.00
             120.00,159.00 120.00,251.00 120.00,251.00
             120.00,253.22 120.22,256.70 118.98,258.59
             116.99,261.60 112.59,261.23 106.09,266.94
             98.83,273.31 95.12,280.35 95.00,290.00
             94.93,296.56 94.25,305.03 96.90,311.00
             100.94,320.09 109.08,328.18 119.00,330.47
             122.36,331.25 132.08,331.04 136.00,331.00
             140.33,330.95 144.05,330.54 148.00,328.58
             152.50,326.33 157.61,321.99 160.65,317.99
             167.49,308.98 162.64,306.02 175.00,306.00
             175.00,306.00 265.00,306.00 265.00,306.00
             267.22,306.00 270.70,305.78 272.59,307.02
             275.60,309.01 275.23,313.41 280.94,319.91
             287.31,327.17 294.35,330.88 304.00,331.00
             308.54,331.05 318.01,331.36 322.00,330.21
             332.23,327.27 342.06,317.44 344.47,307.00
             345.25,303.64 345.04,293.92 345.00,290.00
             344.88,280.35 341.17,273.31 333.91,266.94
             327.41,261.23 323.01,261.60 321.02,258.59
             319.78,256.70 320.00,253.22 320.00,251.00
             320.00,251.00 320.00,161.00 320.00,161.00
             320.00,158.78 319.78,155.30 321.02,153.41
             323.01,150.40 327.41,150.77 333.91,145.06
             341.17,138.69 344.88,131.65 345.00,122.00
             345.04,118.08 345.25,108.36 344.47,105.00
             342.06,94.56 332.23,84.73 322.00,81.79
             318.01,80.64 308.54,80.95 304.00,81.00
             294.35,81.12 287.31,84.83 280.94,92.09
             275.23,98.59 275.60,102.99 272.59,104.98
             270.70,106.22 267.22,106.00 265.00,106.00
             265.00,106.00 173.00,106.00 173.00,106.00
             161.21,105.78 168.29,98.95 154.83,88.02
             145.98,80.82 141.75,81.00 131.00,81.00
             126.95,81.00 123.01,80.87 119.00,81.53 Z
           M 129.00,100.42
           C 150.27,99.36 153.46,129.08 134.00,132.53
             123.64,134.37 112.68,126.17 114.42,115.00
             115.66,106.98 121.58,102.35 129.00,100.42 Z
           M 308.00,100.37
           C 328.94,100.03 332.43,130.12 311.00,132.69
             294.04,134.72 289.51,116.45 295.85,107.17
             298.61,103.14 303.43,101.32 308.00,100.37 Z
           M 168.21,127.60
           C 168.21,127.60 201.00,127.00 201.00,127.00
             201.00,127.00 265.00,127.00 265.00,127.00
             265.00,127.00 272.61,128.02 272.61,128.02
             272.61,128.02 281.52,141.00 281.52,141.00
             281.52,141.00 291.17,149.02 291.17,149.02
             291.17,149.02 297.98,153.39 297.98,153.39
             297.98,153.39 299.00,161.00 299.00,161.00
             299.00,161.00 299.00,251.00 299.00,251.00
             299.00,251.00 297.98,258.61 297.98,258.61
             297.98,258.61 291.17,262.98 291.17,262.98
             291.17,262.98 282.32,270.08 282.32,270.08
             282.32,270.08 272.61,283.98 272.61,283.98
             272.61,283.98 265.00,285.00 265.00,285.00
             265.00,285.00 175.00,285.00 175.00,285.00
             175.00,285.00 167.39,283.98 167.39,283.98
             167.39,283.98 163.02,277.17 163.02,277.17
             163.02,277.17 155.92,268.32 155.92,268.32
             155.92,268.32 142.02,258.61 142.02,258.61
             142.02,258.61 141.00,251.00 141.00,251.00
             141.00,251.00 141.00,161.00 141.00,161.00
             141.00,161.00 142.02,153.39 142.02,153.39
             142.02,153.39 148.83,149.02 148.83,149.02
             148.83,149.02 158.48,141.00 158.48,141.00
             158.48,141.00 168.21,127.60 168.21,127.60 Z
           M 129.00,279.31
           C 133.59,279.05 138.69,279.87 142.21,283.11
             150.32,290.56 148.35,309.67 132.00,311.63
             123.02,312.71 113.35,302.96 114.37,294.00
             115.38,285.01 120.65,280.84 129.00,279.31 Z
           M 307.00,279.31
           C 311.22,279.07 316.33,279.69 319.70,282.51
             330.86,291.84 324.90,309.43 311.00,311.58
             308.55,311.96 306.29,311.45 304.00,310.60
             293.51,306.74 289.94,294.47 295.91,285.33
             298.59,281.22 302.47,280.17 307.00,279.31 Z" />
</svg>
